<svg id="Capa_1" enable-background="new 0 0 512 512" height="512" viewBox="0 0 512 512" width="512" xmlns="http://www.w3.org/2000/svg"><g><g id="Page-1_3_"><g id="_x30_04---Website-Layout"><path id="Shape_29_" d="m0 484.571c0 15.149 12.28 27.429 27.429 27.429h457.143c15.148 0 27.428-12.28 27.428-27.429v-356.571h-512zm393.143 9.143h-128c-5.049 0-9.143-4.093-9.143-9.143 0-5.049 4.093-9.143 9.143-9.143h128c5.049 0 9.143 4.093 9.143 9.143s-4.094 9.143-9.143 9.143zm91.428-36.571h-219.428c-5.049 0-9.143-4.093-9.143-9.143 0-5.049 4.093-9.143 9.143-9.143h219.429c5.049 0 9.143 4.093 9.143 9.143-.001 5.049-4.094 9.143-9.144 9.143zm-228.571-45.714c0-5.049 4.093-9.143 9.143-9.143h91.429c5.049 0 9.143 4.093 9.143 9.143s-4.093 9.143-9.143 9.143h-91.429c-5.05-.001-9.143-4.094-9.143-9.143zm228.571 9.142h-91.429c-5.049 0-9.143-4.093-9.143-9.143s4.093-9.143 9.143-9.143h91.429c5.049 0 9.143 4.093 9.143 9.143s-4.093 9.143-9.143 9.143zm0-73.142h-246.857c-5.049 0-9.143-4.093-9.143-9.143 0-5.049 4.093-9.143 9.143-9.143h246.857c5.049 0 9.143 4.093 9.143 9.143 0 5.049-4.093 9.143-9.143 9.143zm0-36.572h-91.429c-5.049 0-9.143-4.093-9.143-9.143 0-5.049 4.093-9.143 9.143-9.143h91.429c5.049 0 9.143 4.093 9.143 9.143s-4.093 9.143-9.143 9.143zm-338.285-146.286c0-10.099 8.187-18.286 18.286-18.286h310.857c10.099 0 18.286 8.187 18.286 18.286v54.857c0 10.099-8.187 18.286-18.286 18.286h-310.858c-10.099 0-18.286-8.187-18.286-18.286v-54.857zm9.143 91.429h329.143c5.049 0 9.143 4.093 9.143 9.143 0 5.049-4.093 9.143-9.143 9.143h-329.143c-5.049 0-9.143-4.093-9.143-9.143s4.093-9.143 9.143-9.143zm0 36.571h201.143c5.049 0 9.143 4.093 9.143 9.143 0 5.049-4.093 9.143-9.143 9.143h-201.143c-5.049 0-9.143-4.093-9.143-9.143 0-5.049 4.093-9.143 9.143-9.143zm0 36.572h45.714c5.049 0 9.143 4.093 9.143 9.143 0 5.049-4.093 9.143-9.143 9.143h-45.714c-5.049 0-9.143-4.093-9.143-9.143s4.093-9.143 9.143-9.143zm0 36.571h237.714c5.049 0 9.143 4.093 9.143 9.143 0 5.049-4.093 9.143-9.143 9.143h-237.714c-5.049 0-9.143-4.093-9.143-9.143 0-5.049 4.093-9.143 9.143-9.143zm-9.143 54.857c0-10.099 8.187-18.286 18.286-18.286h54.857c10.099 0 18.286 8.187 18.286 18.286v54.857c0 10.099-8.187 18.286-18.286 18.286h-54.857c-10.099 0-18.286-8.187-18.286-18.286zm-128-246.857c0-15.148 12.28-27.429 27.429-27.429h54.857c15.148 0 27.429 12.28 27.429 27.429v292.571c0 15.148-12.28 27.429-27.429 27.429h-54.858c-15.148 0-27.429-12.28-27.429-27.429v-292.571z"/><path id="Rectangle-path_8_" d="m164.571 420.571h54.866v54.857h-54.866z"/><path id="Rectangle-path_7_" d="m45.714 164.571h54.857c5.049 0 9.143 4.093 9.143 9.143v292.571c0 5.049-4.093 9.143-9.143 9.143h-54.857c-5.049 0-9.143-4.093-9.143-9.143v-292.571c0-5.049 4.094-9.143 9.143-9.143z"/><path id="Rectangle-path_6_" d="m164.571 164.571h310.866v54.857h-310.866z"/><path id="Shape_28_" d="m484.571 0h-457.142c-11.582.048-21.886 7.366-25.747 18.286h217.746c15.148 0 27.429 12.28 27.429 27.429v18.285c0 5.049 4.093 9.143 9.143 9.143h256v-45.714c0-15.149-12.28-27.429-27.429-27.429zm-91.428 45.714c-5.049 0-9.143-4.093-9.143-9.143s4.093-9.143 9.143-9.143c5.049 0 9.143 4.093 9.143 9.143s-4.094 9.143-9.143 9.143zm36.571 0c-5.049 0-9.143-4.093-9.143-9.143s4.093-9.143 9.143-9.143c5.049 0 9.143 4.093 9.143 9.143s-4.093 9.143-9.143 9.143zm36.572 0c-5.049 0-9.143-4.093-9.143-9.143s4.093-9.143 9.143-9.143 9.143 4.093 9.143 9.143-4.094 9.143-9.143 9.143z"/><path id="Shape_27_" d="m228.571 64v-18.286c0-5.049-4.093-9.143-9.143-9.143h-219.428v73.143h512v-18.285h-256c-15.148 0-27.429-12.281-27.429-27.429zm-91.428 18.286h-100.572c-5.049 0-9.143-4.093-9.143-9.143s4.094-9.143 9.143-9.143h100.571c5.049 0 9.143 4.093 9.143 9.143s-4.093 9.143-9.142 9.143zm70.464-6.464c2.377 2.296 3.33 5.695 2.493 8.892s-3.333 5.693-6.53 6.53-6.596-.116-8.891-2.493l-2.679-2.68-2.679 2.679c-3.587 3.465-9.29 3.415-12.817-.111-3.527-3.527-3.576-9.229-.111-12.817l2.679-2.679-2.679-2.679c-3.465-3.587-3.415-9.29.111-12.817 3.527-3.527 9.229-3.576 12.817-.111l2.679 2.679 2.679-2.679c3.587-3.465 9.29-3.415 12.817.111 3.527 3.527 3.576 9.229.111 12.817l-2.679 2.679z"/></g></g></g></svg>