<?xml version="1.0" encoding="UTF-8"?>
<!DOCTYPE svg PUBLIC "-//W3C//DTD SVG 1.1//EN" "http://www.w3.org/Graphics/SVG/1.1/DTD/svg11.dtd">
<!-- Creator: CorelDRAW 2020 (64 Bit) -->
<svg xmlns="http://www.w3.org/2000/svg" xml:space="preserve" width="173.524mm" height="146.951mm" version="1.1" style="shape-rendering:geometricPrecision; text-rendering:geometricPrecision; image-rendering:optimizeQuality; fill-rule:evenodd; clip-rule:evenodd"
viewBox="0 0 18461.29 15634.18"
 xmlns:xlink="http://www.w3.org/1999/xlink"
 xmlns:xodm="http://www.corel.com/coreldraw/odm/2003">
 <defs>
  <style type="text/css">
   <![CDATA[
    .fil0 {fill:#373435}
   ]]>
  </style>
 </defs>
 <g id="Camada_x0020_1">
  <metadata id="CorelCorpID_0Corel-Layer"/>
  <path class="fil0" d="M17658.28 5317.42c767,3499.77 -1331.52,7628.57 -5334.91,9939.92 -37.34,21.59 -74.78,42.91 -112.2,64.02 3832.88,-2266.67 5800.18,-6308.11 5009.62,-9763.8 -375.17,147.5 -799.14,180.58 -1218.43,68.23 -1041.85,-279.17 -1660.13,-1350.06 -1380.97,-2391.91 112.35,-419.29 352.97,-769.88 668.28,-1021.07 -2597.44,-2412.45 -7081.04,-2729.43 -10960.46,-543.41 36.97,-21.84 74.18,-43.6 111.54,-65.17 4003.36,-2311.34 8628.24,-2064.32 11275.64,349.77 393.95,-174.96 848.1,-221.34 1296.9,-101.07 1041.85,279.16 1660.13,1350.05 1380.96,2391.9 -120.25,448.8 -387.5,818.89 -735.98,1072.61zm-6663.59 6170.74c-799.31,2983.11 -3865.56,4753.41 -6848.67,3954.09 -2983.1,-799.32 -4753.4,-3865.57 -3954.08,-6848.67 799.31,-2983.11 3865.56,-4753.41 6848.67,-3954.09 2983.1,799.32 4753.4,3865.57 3954.08,6848.67z"/>
 </g>
</svg>
